<?xml version="1.0" encoding="utf-8"?>
<!-- Generator: Adobe Illustrator 27.1.0, SVG Export Plug-In . SVG Version: 6.00 Build 0)  -->
<svg version="1.1" id="Capa_1" xmlns="http://www.w3.org/2000/svg" xmlns:xlink="http://www.w3.org/1999/xlink" x="0px" y="0px"
	 viewBox="0 0 77 40" style="enable-background:new 0 0 77 40;" xml:space="preserve">
<style type="text/css">
	.st0{fill:none;stroke:#BE1622;stroke-miterlimit:10;}
	.st1{fill:#FECB38;}
	.st2{fill:#9CCB89;}
	.st3{fill:#8FD3F4;}
	.st4{fill:#FFFFFF;}
	.st5{font-family:'ShowcardGothic-Reg';}
	.st6{font-size:19.6095px;}
</style>
<rect x="18.2" y="1.1" class="st0" width="1" height="35.8"/>
<g>
	<polygon class="st1" points="17.1,6.6 8.2,10.6 8.2,15.5 17.1,18.5 	"/>
	<polygon class="st2" points="17.1,19.1 7.3,16.1 4.6,16.9 4.6,21.6 17.1,25.9 	"/>
	<polygon class="st3" points="17.1,26.6 4.6,22.5 0.3,23 0.3,27.9 17.1,33.7 	"/>
	<polygon class="st4" points="8.9,12 8.9,14.8 16.9,17.4 16.9,14.5 	"/>
	<polygon class="st4" points="5.2,18.5 5.2,21.1 16.9,25 16.9,22 	"/>
	<polygon class="st4" points="0.9,24.5 0.9,27.2 16.9,32.6 16.9,29.6 	"/>
	<ellipse class="st1" cx="9.9" cy="13.8" rx="0.5" ry="0.6"/>
	<ellipse class="st2" cx="6.4" cy="20.4" rx="0.5" ry="0.6"/>
	<ellipse class="st3" cx="2" cy="26.5" rx="0.5" ry="0.6"/>
</g>
<text transform="matrix(0.5185 0 0 1 20.2184 15.4813)"><tspan x="0" y="0" class="st4 st5 st6">bookshop</tspan><tspan x="0" y="23.5" class="st4 st5 st6">libronova</tspan></text>
</svg>
